<svg xmlns="http://www.w3.org/2000/svg" viewBox="0 0 1200 630">
  <defs>
    <linearGradient id="bg" x1="0" x2="1" y1="0" y2="1">
      <stop offset="0%" stop-color="#102733"/>
      <stop offset="100%" stop-color="#173847"/>
    </linearGradient>
  </defs>
  <rect width="1200" height="630" fill="url(#bg)" />
  <g opacity="0.18" stroke="#efe9da">
    <path d="M0 120h1200M0 240h1200M0 360h1200M0 480h1200" />
    <path d="M180 0v630M360 0v630M540 0v630M720 0v630M900 0v630" />
  </g>
  <circle cx="938" cy="186" r="132" fill="#c99a5b" opacity="0.18" />
  <circle cx="1010" cy="418" r="110" fill="#347a77" opacity="0.16" />
  <text x="110" y="240" fill="#dfba7f" font-family="Georgia, serif" font-size="36" letter-spacing="8">BRIAN'S PLUMBING WORKS</text>
  <text x="110" y="345" fill="#efe9da" font-family="Georgia, serif" font-size="92">Plumbing-Geek PDX</text>
  <text x="110" y="412" fill="#efe9da" font-family="Arial, sans-serif" font-size="32">Portland plumbing, vintage restoration, and old-house judgment.</text>
  <path d="M110 492h290c81.738 0 148 66.262 148 148" fill="none" stroke="#dfba7f" stroke-linecap="round" stroke-width="20"/>
  <circle cx="110" cy="492" r="24" fill="#efe9da"/>
  <circle cx="548" cy="640" r="24" fill="#efe9da"/>
</svg>
