<svg xmlns="http://www.w3.org/2000/svg" viewBox="0 0 64 64">
  <rect width="64" height="64" rx="16" fill="#14241d" />
  <circle cx="32" cy="32" r="22" fill="#f5efe5" />
  <path
    fill="#d46f6c"
    d="M32 17c2.8 0 5.5 2.4 5.5 5.6 0 1-.2 1.9-.6 2.7 1-.6 2.1-.9 3.3-.9 3.5 0 6.3 2.7 6.3 6.3 0 3-2 5.4-4.7 6.1 1.4 1.2 2.2 3 2.2 4.8 0 3.6-2.8 6.4-6.3 6.4-2.4 0-4.5-1.2-5.7-3.2-1.2 2-3.3 3.2-5.7 3.2-3.5 0-6.3-2.8-6.3-6.4 0-1.8.8-3.6 2.2-4.8-2.7-.7-4.7-3.1-4.7-6.1 0-3.6 2.8-6.3 6.3-6.3 1.2 0 2.3.3 3.3.9-.4-.8-.6-1.7-.6-2.7 0-3.2 2.7-5.6 5.5-5.6Z"
  />
  <circle cx="32" cy="32" r="6" fill="#b98a4a" />
  <path
    fill="#20352a"
    d="M31 38h2v11c0 2.8-1.7 5.3-4.3 6.4l-1.6-2.5c2.4-.8 3.9-2.8 3.9-5.1V38Zm7.6 7.8c-1.7 1.6-4.1 2.4-6.6 2.2v-2.6c1.9.1 3.7-.5 5-1.8 1.5-1.4 2.2-3.4 2-5.4h2.6c.3 2.8-.7 5.6-3 7.6Z"
  />
</svg>
